<?xml version="1.0" standalone="no"?>
<!DOCTYPE svg PUBLIC "-//W3C//DTD SVG 20010904//EN"
 "http://www.w3.org/TR/2001/REC-SVG-20010904/DTD/svg10.dtd">
<svg version="1.0" xmlns="http://www.w3.org/2000/svg"
 width="458.992396pt" height="45.699871pt" viewBox="0 0 458.992396 45.699871"
 preserveAspectRatio="xMidYMid meet">
<metadata>
Created by potrace 1.12, written by Peter Selinger 2001-2015
</metadata>
<g transform="translate(-6.112998,51.906929) scale(0.100000,-0.100000)"
fill="#000000" stroke="none">
<path d="M1837 509 c-111 -26 -177 -109 -177 -221 0 -30 9 -71 19 -94 39 -85
150 -146 238 -129 41 7 113 41 113 53 0 12 -39 72 -48 72 -4 0 -18 -7 -31 -17
-31 -21 -102 -21 -136 1 -37 24 -65 75 -65 117 0 42 34 98 70 116 34 17 95 16
131 -2 35 -18 44 -15 65 27 15 30 15 32 -2 45 -19 14 -110 44 -128 42 -6 -1
-28 -5 -49 -10z"/>
<path d="M377 503 c-4 -3 -7 -24 -7 -45 l0 -38 65 0 65 0 2 -172 3 -173 45 0
45 0 3 173 2 172 65 0 65 0 0 45 0 45 -173 0 c-96 0 -177 -3 -180 -7z"/>
<path d="M800 290 l0 -220 45 0 45 0 0 45 0 45 46 0 c44 0 46 -1 65 -45 19
-44 21 -45 64 -45 52 0 54 7 25 71 l-19 44 29 30 c67 69 68 168 2 239 -43 45
-80 56 -197 56 l-105 0 0 -220z m226 106 c21 -18 28 -32 28 -61 0 -56 -38 -85
-110 -85 l-54 0 0 85 0 85 54 0 c43 0 61 -5 82 -24z"/>
<path d="M1340 499 c-32 -13 -78 -56 -96 -91 -10 -20 -14 -68 -14 -183 l0
-155 45 0 45 0 0 45 0 45 85 0 85 0 0 -45 0 -45 45 0 45 0 0 150 c0 165 -7
196 -56 242 -50 46 -124 61 -184 37z m116 -102 c23 -20 28 -34 32 -85 l4 -62
-86 0 -86 0 0 56 c0 48 4 59 29 85 36 35 70 37 107 6z"/>
<path d="M2110 290 l0 -220 45 0 45 0 0 46 c0 37 6 54 31 86 l32 40 46 -84 46
-83 54 -3 c29 -2 51 1 50 5 -2 5 -32 61 -66 124 -35 64 -63 120 -63 124 0 7
16 30 108 153 l24 32 -53 0 -54 0 -75 -103 -75 -102 -3 103 -3 102 -44 0 -45
0 0 -220z"/>
<path d="M2615 491 c-79 -36 -125 -111 -125 -201 0 -89 44 -160 125 -203 56
-29 145 -29 203 1 l42 22 0 90 0 90 -45 0 -45 0 0 -60 c0 -56 -2 -61 -26 -70
-62 -24 -146 32 -160 106 -20 106 102 193 196 139 14 -8 30 -14 35 -15 10 0
45 54 45 70 0 4 -19 18 -43 29 -56 27 -146 28 -202 2z"/>
<path d="M2952 293 l3 -218 150 0 150 0 3 43 3 42 -105 0 -106 0 0 45 0 45 71
0 70 0 -3 43 -3 42 -67 3 -68 3 0 39 0 40 105 0 105 0 0 45 0 45 -155 0 -155
0 2 -217z"/>
<path d="M3342 293 l3 -218 45 0 45 0 5 128 5 128 59 -103 c94 -163 91 -160
145 -156 l46 3 0 215 0 215 -47 3 -47 3 -3 -132 -3 -133 -75 130 -75 129 -53
3 -52 3 2 -218z"/>
<path d="M3800 290 l0 -221 48 3 47 3 0 215 0 215 -47 3 -48 3 0 -221z"/>
<path d="M3960 505 c0 -2 29 -52 65 -109 l65 -105 -65 -104 c-36 -58 -65 -107
-65 -111 0 -3 24 -6 54 -6 l54 0 38 65 c21 36 41 65 44 65 3 0 22 -30 43 -65
l38 -65 54 0 c30 0 55 2 55 5 0 3 -29 53 -65 111 l-65 105 65 107 66 107 -47
3 c-26 2 -52 1 -59 -2 -7 -2 -27 -30 -45 -60 -17 -31 -35 -56 -40 -56 -5 0
-25 27 -45 60 l-36 60 -55 0 c-30 0 -54 -2 -54 -5z"/>
<path d="M147 396 l-86 -93 93 -86 93 -86 33 34 34 35 -63 56 -62 57 60 61 61
62 -28 27 c-15 15 -33 27 -38 27 -6 0 -50 -42 -97 -94z"/>
<path d="M4425 460 l-29 -30 59 -61 60 -61 -58 -53 -58 -53 17 -27 c34 -52 42
-49 142 44 l93 86 -86 93 c-48 50 -92 92 -99 92 -7 0 -25 -14 -41 -30z"/>
</g>
</svg>
